<?xml version="1.0" encoding="iso-8859-1"?>
<!-- Generator: Adobe Illustrator 19.0.0, SVG Export Plug-In . SVG Version: 6.00 Build 0)  -->
<svg xmlns="http://www.w3.org/2000/svg" xmlns:xlink="http://www.w3.org/1999/xlink" version="1.1" id="Layer_1" x="0px" y="0px" viewBox="0 0 512 512" style="enable-background:new 0 0 512 512;" xml:space="preserve" width="512px" height="512px">
<g transform="translate(1 1)">
	<g>
		<g>
			<path d="M288.034,148.087c-0.689-1.239-1.681-2.232-2.92-2.92l-24.14-24.14c-3.413-3.413-8.533-3.413-11.947,0l-24.14,24.14     c-1.239,0.689-2.231,1.681-2.92,2.92l-24.14,24.14c-3.413,3.413-3.413,8.533,0,11.947s8.533,3.413,11.947,0l11.093-11.093v39.253     c0,5.12,3.413,8.533,8.533,8.533s8.533-3.413,8.533-8.533v-56.32L255,138.947l17.067,17.067v56.32     c0,5.12,3.413,8.533,8.533,8.533c5.12,0,8.533-3.413,8.533-8.533V173.08l11.093,11.093c1.707,1.707,3.413,2.56,5.973,2.56     s4.267-0.853,5.973-2.56c3.413-3.413,3.413-8.533,0-11.947L288.034,148.087z" fill="#f2b01f"/>
			<path d="M255,67.267c-56.32,0-102.4,46.08-102.4,102.4s46.08,102.4,102.4,102.4s102.4-46.08,102.4-102.4     S311.32,67.267,255,67.267z M255,255c-46.933,0-85.333-38.4-85.333-85.333s38.4-85.333,85.333-85.333s85.333,38.4,85.333,85.333     S301.933,255,255,255z" fill="#f2b01f"/>
			<path d="M255-1C161.133-1,84.333,75.8,84.333,169.667c0,46.08,13.653,74.24,33.28,112.64c2.56,5.973,5.973,11.947,9.387,18.773     c47.787,98.133,120.32,204.8,121.173,206.507C249.88,509.293,252.44,511,255,511c2.56,0,5.12-1.707,6.827-4.267     C262.68,505.88,335.213,399.213,383,301.08c3.413-6.827,5.973-12.8,9.387-18.773c19.627-38.4,33.28-66.56,33.28-112.64     C425.667,75.8,348.867-1,255-1z M377.027,273.773c-2.56,6.827-5.973,12.8-9.387,19.627     c-38.4,78.507-93.013,163.84-112.64,192.853C235.373,457.24,180.76,372.76,142.36,293.4c-3.413-5.973-5.973-12.8-9.387-18.773     C114.2,237.08,101.4,211.48,101.4,169.667c0-84.48,69.12-153.6,153.6-153.6s153.6,69.12,153.6,153.6     C408.6,211.48,395.8,237.08,377.027,273.773z" fill="#f2b01f"/>
		</g>
	</g>
</g>
<g>
</g>
<g>
</g>
<g>
</g>
<g>
</g>
<g>
</g>
<g>
</g>
<g>
</g>
<g>
</g>
<g>
</g>
<g>
</g>
<g>
</g>
<g>
</g>
<g>
</g>
<g>
</g>
<g>
</g>
</svg>
